<svg width="24" height="24" viewBox="0 0 24 24" fill="none" xmlns="http://www.w3.org/2000/svg">
<path d="M20.619 8.7C19.579 4.07 15.539 2 11.999 2H11.989C8.459 2 4.429 4.07 3.379 8.69C2.199 13.85 5.359 18.22 8.219 20.98C9.23272 21.9612 10.5882 22.5098 11.999 22.51C13.359 22.51 14.719 22 15.769 20.98C18.629 18.22 21.789 13.86 20.619 8.7ZM15.279 9.53L11.279 13.53C11.129 13.68 10.939 13.75 10.749 13.75C10.559 13.75 10.369 13.68 10.219 13.53L8.719 12.03C8.57952 11.8889 8.5013 11.6984 8.5013 11.5C8.5013 11.3016 8.57952 11.1111 8.719 10.97C9.009 10.68 9.489 10.68 9.779 10.97L10.749 11.94L14.219 8.47C14.509 8.18 14.989 8.18 15.279 8.47C15.569 8.76 15.569 9.24 15.279 9.53Z" fill="white"/>
</svg>
