<svg width="130" height="38" viewBox="0 0 130 38" fill="none" xmlns="http://www.w3.org/2000/svg">
<path d="M31.436 7.63679V31.4606H36.7824V23.7863L39.8471 20.7499L47.1685 31.4606H53.877L43.4568 17.0462L52.9576 7.63679H46.2832L36.7824 17.5133V7.63679H31.436Z" fill="white"/>
<path d="M59.7913 22.852C59.7913 22.1624 59.8594 21.484 59.9956 20.8166C60.1318 20.1493 60.3589 19.5598 60.6767 19.0482C61.0172 18.5366 61.4599 18.1251 62.0047 17.8136C62.5496 17.48 63.2307 17.3131 64.0479 17.3131C64.8652 17.3131 65.5463 17.48 66.0911 17.8136C66.6587 18.1251 67.1013 18.5366 67.4192 19.0482C67.7597 19.5598 67.9981 20.1493 68.1343 20.8166C68.2705 21.484 68.3386 22.1624 68.3386 22.852C68.3386 23.5416 68.2705 24.22 68.1343 24.8874C67.9981 25.5325 67.7597 26.122 67.4192 26.6558C67.1013 27.1674 66.6587 27.579 66.0911 27.8904C65.5463 28.2018 64.8652 28.3575 64.0479 28.3575C63.2307 28.3575 62.5496 28.2018 62.0047 27.8904C61.4599 27.579 61.0172 27.1674 60.6767 26.6558C60.3589 26.122 60.1318 25.5325 59.9956 24.8874C59.8594 24.22 59.7913 23.5416 59.7913 22.852ZM54.9558 22.852C54.9558 24.2312 55.1714 25.4769 55.6028 26.5891C56.0341 27.7013 56.6471 28.6578 57.4416 29.4586C58.2362 30.2372 59.1897 30.8378 60.3021 31.2604C61.4145 31.6831 62.6631 31.8944 64.0479 31.8944C65.4328 31.8944 66.6814 31.6831 67.7938 31.2604C68.9289 30.8378 69.8937 30.2372 70.6883 29.4586C71.4828 28.6578 72.0958 27.7013 72.5271 26.5891C72.9585 25.4769 73.1741 24.2312 73.1741 22.852C73.1741 21.4729 72.9585 20.2272 72.5271 19.1149C72.0958 17.9805 71.4828 17.024 70.6883 16.2454C69.8937 15.4446 68.9289 14.8329 67.7938 14.4102C66.6814 13.9653 65.4328 13.7429 64.0479 13.7429C62.6631 13.7429 61.4145 13.9653 60.3021 14.4102C59.1897 14.8329 58.2362 15.4446 57.4416 16.2454C56.6471 17.024 56.0341 17.9805 55.6028 19.1149C55.1714 20.2272 54.9558 21.4729 54.9558 22.852Z" fill="white"/>
<path d="M85.206 28.3575C84.4342 28.3575 83.7758 28.2018 83.231 27.8904C82.6861 27.579 82.2434 27.1786 81.9029 26.6892C81.5851 26.1776 81.3467 25.5881 81.1878 24.9207C81.0516 24.2534 80.9835 23.575 80.9835 22.8854C80.9835 22.1736 81.0516 21.484 81.1878 20.8166C81.324 20.1493 81.551 19.5598 81.8688 19.0482C82.2094 18.5366 82.6407 18.1251 83.1628 17.8136C83.7077 17.48 84.3774 17.3131 85.172 17.3131C85.9438 17.3131 86.5909 17.48 87.113 17.8136C87.6578 18.1251 88.1005 18.5477 88.4411 19.0816C88.7816 19.5932 89.02 20.1827 89.1562 20.85C89.3151 21.5173 89.3946 22.1958 89.3946 22.8854C89.3946 23.575 89.3265 24.2534 89.1902 24.9207C89.054 25.5881 88.8157 26.1776 88.4751 26.6892C88.1573 27.1786 87.726 27.579 87.1811 27.8904C86.659 28.2018 86.0006 28.3575 85.206 28.3575ZM76.3182 14.21V37.5H81.1537V29.3252H81.2218C81.8121 30.1704 82.5612 30.8155 83.4693 31.2604C84.4001 31.6831 85.4103 31.8944 86.5 31.8944C87.7941 31.8944 88.9178 31.6497 89.8713 31.1603C90.8475 30.6709 91.6534 30.0147 92.2891 29.1917C92.9474 28.3686 93.4355 27.4233 93.7533 26.3555C94.0712 25.2878 94.2301 24.1756 94.2301 23.0188C94.2301 21.7954 94.0712 20.6276 93.7533 19.5153C93.4355 18.3809 92.9474 17.391 92.2891 16.5457C91.6307 15.7004 90.8021 15.022 89.8032 14.5103C88.8043 13.9987 87.6124 13.7429 86.2276 13.7429C85.1379 13.7429 84.139 13.9542 83.231 14.3769C82.3229 14.7995 81.5737 15.478 80.9835 16.4122H80.9154V14.21H76.3182Z" fill="white"/>
<path d="M97.1358 14.21V31.4606H101.971V23.6862C101.971 22.9076 102.051 22.1847 102.21 21.5173C102.369 20.85 102.63 20.2717 102.993 19.7823C103.379 19.2707 103.878 18.8703 104.491 18.5811C105.104 18.2919 105.853 18.1473 106.739 18.1473C107.034 18.1473 107.34 18.1695 107.658 18.214C107.976 18.2363 108.248 18.2696 108.475 18.3141V13.9097C108.089 13.7985 107.738 13.7429 107.42 13.7429C106.807 13.7429 106.217 13.8319 105.649 14.0098C105.081 14.1878 104.548 14.4436 104.049 14.7773C103.549 15.0887 103.106 15.478 102.72 15.9451C102.335 16.39 102.028 16.8794 101.801 17.4132H101.733V14.21H97.1358Z" fill="white"/>
<path d="M110.167 19.5153C110.235 18.4031 110.519 17.48 111.018 16.7459C111.518 16.0118 112.153 15.4224 112.925 14.9775C113.697 14.5326 114.56 14.2212 115.513 14.0432C116.489 13.843 117.466 13.7429 118.442 13.7429C119.327 13.7429 120.224 13.8096 121.132 13.9431C122.04 14.0543 122.869 14.2879 123.618 14.6438C124.367 14.9997 124.98 15.5002 125.457 16.1453C125.933 16.7681 126.172 17.6023 126.172 18.6478V27.6235C126.172 28.402 126.217 29.1472 126.308 29.859C126.399 30.5708 126.558 31.1047 126.785 31.4606H121.881C121.79 31.1937 121.711 30.9268 121.643 30.6598C121.597 30.3706 121.563 30.0815 121.541 29.7923C120.769 30.5708 119.861 31.1158 118.816 31.4273C117.772 31.7387 116.705 31.8944 115.615 31.8944C114.775 31.8944 113.992 31.7943 113.266 31.5941C112.539 31.3939 111.904 31.0825 111.359 30.6598C110.814 30.2372 110.383 29.7033 110.065 29.0582C109.77 28.4131 109.622 27.6457 109.622 26.7559C109.622 25.7772 109.792 24.9764 110.133 24.3535C110.496 23.7084 110.95 23.1968 111.495 22.8186C112.063 22.4405 112.698 22.1624 113.402 21.9845C114.128 21.7843 114.855 21.6286 115.581 21.5173C116.308 21.4061 117.023 21.3171 117.727 21.2504C118.43 21.1837 119.055 21.0836 119.6 20.9501C120.144 20.8166 120.576 20.6276 120.894 20.3829C121.211 20.1159 121.359 19.7378 121.336 19.2484C121.336 18.7368 121.245 18.3364 121.064 18.0472C120.905 17.7358 120.678 17.5022 120.383 17.3465C120.11 17.1685 119.781 17.0573 119.395 17.0128C119.032 16.9461 118.635 16.9127 118.203 16.9127C117.25 16.9127 116.501 17.1129 115.956 17.5133C115.411 17.9137 115.093 18.5811 115.002 19.5153H110.167ZM121.336 23.0188C121.132 23.1968 120.871 23.3414 120.553 23.4526C120.258 23.5416 119.929 23.6194 119.566 23.6862C119.225 23.7529 118.862 23.8085 118.476 23.853C118.09 23.8975 117.704 23.9531 117.318 24.0198C116.955 24.0866 116.592 24.1756 116.228 24.2868C115.888 24.398 115.581 24.5537 115.309 24.7539C115.059 24.9319 114.855 25.1654 114.696 25.4546C114.537 25.7438 114.458 26.1108 114.458 26.5557C114.458 26.9784 114.537 27.3343 114.696 27.6235C114.855 27.9126 115.071 28.1462 115.343 28.3242C115.615 28.4799 115.933 28.5911 116.296 28.6578C116.66 28.7246 117.034 28.7579 117.42 28.7579C118.374 28.7579 119.111 28.6022 119.634 28.2908C120.156 27.9794 120.542 27.6123 120.791 27.1897C121.041 26.7448 121.189 26.2999 121.234 25.855C121.302 25.4101 121.336 25.0542 121.336 24.7873V23.0188Z" fill="white"/>
<path d="M12.9095 21.2018H4.91462C4.93769 20.8627 5.00691 20.4783 5.12228 20.0488C5.26072 19.6192 5.47992 19.2122 5.77987 18.8279C6.1029 18.4436 6.51822 18.127 7.02583 17.8784C7.55652 17.6071 8.21411 17.4714 8.9986 17.4714C10.1984 17.4714 11.0867 17.7879 11.6636 18.421C12.2635 19.054 12.6788 19.9809 12.9095 21.2018ZM4.91462 24.2539H17.8242C17.9164 22.8974 17.8011 21.5974 17.4781 20.354C17.155 19.1105 16.6243 18.0027 15.886 17.0305C15.1707 16.0584 14.2478 15.2897 13.1172 14.7245C11.9866 14.1367 10.6599 13.8428 9.13704 13.8428C7.77571 13.8428 6.52975 14.0802 5.39916 14.5549C4.29164 15.0297 3.3341 15.6853 2.52653 16.5219C1.71896 17.3358 1.09598 18.3079 0.65759 19.4383C0.219197 20.5687 0 21.7896 0 23.1009C0 24.4574 0.20766 25.7008 0.62298 26.8312C1.06137 27.9617 1.67282 28.9338 2.45731 29.7477C3.2418 30.5616 4.19935 31.1946 5.32994 31.6468C6.46053 32.0764 7.72957 32.2912 9.13704 32.2912C11.1675 32.2912 12.898 31.839 14.3285 30.9347C15.7591 30.0303 16.8205 28.5269 17.5127 26.4243H13.1864C13.0249 26.9669 12.5865 27.4869 11.8712 27.9843C11.156 28.459 10.3022 28.6964 9.31009 28.6964C7.92569 28.6964 6.86432 28.346 6.12597 27.6451C5.38762 26.9443 4.98384 25.8139 4.91462 24.2539Z" fill="white"/>
<path d="M20.8774 7.63679V31.8503H25.792V7.63679H20.8774Z" fill="white"/>
<path fill-rule="evenodd" clip-rule="evenodd" d="M55.9354 4.39279H49.9761V0.5H59.9082V10.232H55.9354V4.39279Z" fill="white"/>
<path d="M124.178 10.848V13.5642H124.926V10.848H125.945V10.232H123.159V10.848H124.178Z" fill="white"/>
<path d="M126.337 10.232V13.5642H127.037V11.2261H127.047L127.88 13.5642H128.457L129.29 11.2027H129.3V13.5642H130V10.232H128.947L128.195 12.5235H128.185L127.39 10.232H126.337Z" fill="white"/>
</svg>
