<svg width="24" height="24" viewBox="0 0 24 24" fill="none" xmlns="http://www.w3.org/2000/svg">
<path d="M2.4036 7.06085L12 11.8584L21.5964 7.06085C21.5609 6.44938 21.2929 5.87463 20.8474 5.45432C20.4019 5.03401 19.8125 4.79994 19.2 4.80005H4.8C4.1875 4.79994 3.59814 5.03401 3.15262 5.45432C2.70709 5.87463 2.43913 6.44938 2.4036 7.06085Z" fill="white"/>
<path d="M21.6 9.7417L12 14.5417L2.4 9.7417V16.8001C2.4 17.4366 2.65286 18.0471 3.10295 18.4972C3.55303 18.9472 4.16348 19.2001 4.8 19.2001H19.2C19.8365 19.2001 20.447 18.9472 20.8971 18.4972C21.3471 18.0471 21.6 17.4366 21.6 16.8001V9.7417Z" fill="white"/>
</svg>
