<svg width="61" height="60" viewBox="0 0 61 60" fill="none" xmlns="http://www.w3.org/2000/svg">
<path d="M42.6106 36.1C46.0356 36.675 49.8106 36.075 52.4606 34.3C55.9856 31.95 55.9856 28.1 52.4606 25.75C49.7856 23.975 45.9606 23.375 42.5356 23.975M17.6856 36.1C14.2606 36.675 10.4856 36.075 7.83555 34.3C4.31055 31.95 4.31055 28.1 7.83555 25.75C10.5106 23.975 14.3356 23.375 17.7606 23.975M45.1856 17.9C45.0282 17.875 44.8679 17.875 44.7106 17.9C43.0421 17.8397 41.4625 17.133 40.3056 15.9294C39.1486 14.7258 38.5049 13.1195 38.5106 11.45C38.5106 7.875 41.3856 5 44.9606 5C46.6712 5 48.3118 5.67955 49.5214 6.88916C50.731 8.09877 51.4106 9.73935 51.4106 11.45C51.406 13.1207 50.7555 14.7249 49.5953 15.927C48.4351 17.1292 46.855 17.8361 45.1856 17.9ZM15.1106 17.9C15.2606 17.875 15.4356 17.875 15.5856 17.9C17.254 17.8397 18.8336 17.133 19.9905 15.9294C21.1475 14.7258 21.7912 13.1195 21.7856 11.45C21.7856 7.875 18.9106 5 15.3356 5C13.6249 5 11.9843 5.67955 10.7747 6.88916C9.5651 8.09877 8.88555 9.73935 8.88555 11.45C8.91055 14.95 11.6606 17.775 15.1106 17.9ZM30.1856 36.575C30.0282 36.55 29.8679 36.55 29.7106 36.575C28.0421 36.5147 26.4625 35.808 25.3056 34.6044C24.1486 33.4008 23.5049 31.7945 23.5106 30.125C23.5106 26.55 26.3856 23.675 29.9606 23.675C31.6712 23.675 33.3118 24.3546 34.5214 25.5642C35.731 26.7738 36.4106 28.4144 36.4106 30.125C36.3856 33.625 33.6356 36.475 30.1856 36.575ZM22.9106 44.45C19.3856 46.8 19.3856 50.65 22.9106 53C26.9106 55.675 33.4606 55.675 37.4606 53C40.9856 50.65 40.9856 46.8 37.4606 44.45C33.4856 41.8 26.9106 41.8 22.9106 44.45Z" stroke="white" stroke-width="3" stroke-linecap="round" stroke-linejoin="round"/>
</svg>
