<svg width="58" height="60" viewBox="0 0 58 60" fill="none" xmlns="http://www.w3.org/2000/svg">
<path fill-rule="evenodd" clip-rule="evenodd" d="M23.4996 42.9894C23.4996 42.7407 23.5966 42.5023 23.7693 42.3265C23.942 42.1507 24.1762 42.0519 24.4205 42.0519H36.4477C36.6919 42.0519 36.9261 42.1507 37.0988 42.3265C37.2715 42.5023 37.3685 42.7407 37.3685 42.9894C37.3685 43.238 37.2715 43.4765 37.0988 43.6523C36.9261 43.8281 36.6919 43.9269 36.4477 43.9269H24.4205C24.1762 43.9269 23.942 43.8281 23.7693 43.6523C23.5966 43.4765 23.4996 43.238 23.4996 42.9894ZM24.4205 19.275H36.4477C36.6919 19.275 36.9261 19.1763 37.0988 19.0005C37.2715 18.8246 37.3685 18.5862 37.3685 18.3375C37.3685 18.0889 37.2715 17.8504 37.0988 17.6746C36.9261 17.4988 36.6919 17.4 36.4477 17.4H24.4205C24.1762 17.4 23.942 17.4988 23.7693 17.6746C23.5966 17.8504 23.4996 18.0889 23.4996 18.3375C23.4996 18.5862 23.5966 18.8246 23.7693 19.0005C23.942 19.1763 24.1762 19.275 24.4205 19.275ZM24.4205 49.1382H36.4477C36.6919 49.1382 36.9261 49.0394 37.0988 48.8636C37.2715 48.6878 37.3685 48.4494 37.3685 48.2007C37.3685 47.9521 37.2715 47.7136 37.0988 47.5378C36.9261 47.362 36.6919 47.2632 36.4477 47.2632H24.4205C24.1762 47.2632 23.942 47.362 23.7693 47.5378C23.5966 47.7136 23.4996 47.9521 23.4996 48.2007C23.4996 48.4494 23.5966 48.6878 23.7693 48.8636C23.942 49.0394 24.1762 49.1382 24.4205 49.1382ZM12.5071 16.3582H16.8235C17.8498 16.3582 18.7221 17.0341 19.0392 17.9707L20.4745 16.6446C20.5641 16.5619 20.6687 16.4979 20.7826 16.4563C20.8964 16.4147 21.0172 16.3964 21.138 16.4024C21.2588 16.4083 21.3772 16.4385 21.4866 16.491C21.5959 16.5436 21.694 16.6177 21.7753 16.7089C21.9394 16.893 22.0249 17.1359 22.0131 17.3843C22.0013 17.6326 21.893 17.866 21.7122 18.0331L19.1686 20.3833V23.1406C19.1686 24.4571 18.1165 25.5283 16.8234 25.5283H12.507C11.214 25.5283 10.1618 24.4571 10.1618 23.1406V18.7461C10.162 17.4293 11.2141 16.3582 12.5071 16.3582ZM16.8236 18.2332H12.5073C12.2344 18.2332 12.0037 18.4681 12.0037 18.7459V23.1405C12.0037 23.4183 12.2342 23.6532 12.5073 23.6532H16.8236C17.0965 23.6532 17.3272 23.4183 17.3272 23.1405V22.0847L16.6223 22.7361C16.453 22.8928 16.2324 22.9796 16.0036 22.9793C15.8826 22.9795 15.7628 22.9553 15.6511 22.9082C15.5393 22.8611 15.4378 22.7919 15.3524 22.7048L13.2566 20.5711C13.1702 20.4843 13.1016 20.3809 13.0546 20.2669C13.0076 20.153 12.9833 20.0307 12.9829 19.9071C12.9825 19.7835 13.0061 19.661 13.0524 19.5468C13.0987 19.4325 13.1667 19.3287 13.2526 19.2413C13.3384 19.1539 13.4403 19.0846 13.5526 19.0375C13.6648 18.9904 13.7851 18.9663 13.9064 18.9667C14.0278 18.9671 14.148 18.9919 14.2599 19.0397C14.3719 19.0875 14.4734 19.1574 14.5587 19.2453L16.0341 20.7474L17.327 19.5528V18.7459C17.327 18.4681 17.0965 18.2332 16.8236 18.2332ZM21.7754 29.0347C21.9395 29.2188 22.0251 29.4617 22.0132 29.7101C22.0014 29.9584 21.8932 30.1918 21.7123 30.3589L19.1687 32.7091V35.4665C19.1687 36.783 18.1166 37.8541 16.8235 37.8541H12.5071C11.2141 37.8541 10.1619 36.783 10.1619 35.4665V31.0719C10.1619 29.7554 11.214 28.6842 12.5071 28.6842H16.8235C17.8498 28.6842 18.7221 29.36 19.0392 30.2967L20.4745 28.9706C20.564 28.8878 20.6687 28.8237 20.7826 28.7821C20.8964 28.7405 21.0172 28.7222 21.138 28.7281C21.2588 28.7341 21.3773 28.7642 21.4867 28.8168C21.596 28.8694 21.6942 28.9434 21.7754 29.0347ZM17.327 34.4107L16.6222 35.062C16.4529 35.2188 16.2323 35.3055 16.0035 35.3053C15.8825 35.3054 15.7627 35.2812 15.651 35.2341C15.5392 35.187 15.4377 35.1179 15.3522 35.0307L13.2565 32.8971C13.1701 32.8102 13.1015 32.7068 13.0545 32.5928C13.0075 32.4789 12.9831 32.3566 12.9828 32.233C12.9824 32.1094 13.006 31.9869 13.0523 31.8727C13.0986 31.7584 13.1666 31.6546 13.2524 31.5672C13.3383 31.4798 13.4402 31.4106 13.5525 31.3634C13.6647 31.3163 13.7849 31.2922 13.9063 31.2926C14.0277 31.293 14.1479 31.3178 14.2598 31.3656C14.3717 31.4134 14.4733 31.4833 14.5586 31.5712L16.034 33.0733L17.3269 31.8787V31.0719C17.3269 30.794 17.0964 30.5592 16.8234 30.5592H12.507C12.2341 30.5592 12.0035 30.794 12.0035 31.0719V35.4665C12.0035 35.7444 12.234 35.9791 12.507 35.9791H16.8234C17.0963 35.9791 17.3269 35.7444 17.3269 35.4665V34.4107H17.327ZM21.7754 41.3606C21.9395 41.5447 22.0251 41.7877 22.0132 42.036C22.0014 42.2843 21.8932 42.5177 21.7123 42.6848L19.1687 45.035V47.7923C19.1687 49.1088 18.1166 50.18 16.8235 50.18H12.5071C11.2141 50.18 10.1619 49.1088 10.1619 47.7923V43.3977C10.1619 42.0812 11.214 41.0101 12.5071 41.0101H16.8235C17.8498 41.0101 18.7222 41.6859 19.0393 42.6226L20.4745 41.2965C20.5641 41.2137 20.6687 41.1497 20.7826 41.1081C20.8964 41.0666 21.0172 41.0482 21.138 41.0542C21.2588 41.0601 21.3773 41.0903 21.4866 41.1428C21.596 41.1954 21.6941 41.2694 21.7754 41.3606ZM17.327 46.7366L16.6222 47.3879C16.4529 47.5447 16.2323 47.6314 16.0035 47.6312C15.8825 47.6313 15.7627 47.6072 15.651 47.56C15.5392 47.5129 15.4377 47.4438 15.3522 47.3566L13.2565 45.2229C13.1701 45.136 13.1015 45.0326 13.0545 44.9187C13.0075 44.8047 12.9831 44.6824 12.9828 44.5588C12.9824 44.4352 13.006 44.3128 13.0523 44.1985C13.0986 44.0842 13.1666 43.9804 13.2524 43.893C13.3383 43.8056 13.4402 43.7364 13.5525 43.6892C13.6647 43.6421 13.7849 43.618 13.9063 43.6184C14.0277 43.6188 14.1479 43.6436 14.2598 43.6914C14.3717 43.7392 14.4733 43.8091 14.5586 43.897L16.034 45.3992L17.3269 44.2046V43.3977C17.3269 43.1198 17.0964 42.8851 16.8234 42.8851H12.507C12.2341 42.8851 12.0035 43.1198 12.0035 43.3977V47.7923C12.0035 48.0702 12.234 48.305 12.507 48.305H16.8234C17.0963 48.305 17.3269 48.0702 17.3269 47.7923V46.7366H17.327ZM57.8894 22.7823V31.7841C57.8894 35.0342 56.7485 38.2045 54.6772 40.7108C52.6871 43.1185 49.9559 44.7674 46.9547 45.3877V56.4566C46.9547 58.4105 45.3935 60 43.4744 60H4.05634C2.13724 60 0.575989 58.4105 0.575989 56.4566V8.50642C0.575989 6.55255 2.13724 4.96302 4.05634 4.96302H12.99V4.3254C12.99 4.07676 13.087 3.8383 13.2597 3.66249C13.4324 3.48667 13.6666 3.3879 13.9108 3.3879H18.8629C19.6475 1.36067 21.5705 0 23.7653 0C25.9602 0 27.8831 1.36043 28.6677 3.38778H33.6198C33.864 3.38778 34.0982 3.48655 34.2709 3.66237C34.4436 3.83818 34.5406 4.07664 34.5406 4.32528V4.9629H43.4744C45.3935 4.9629 46.9547 6.55243 46.9547 8.50631V17.3929L57.3313 21.9205C57.4969 21.9928 57.6381 22.113 57.7373 22.2662C57.8365 22.4194 57.8894 22.5989 57.8894 22.7823ZM34.5406 6.83802V8.58822H42.4731C42.7173 8.58822 42.9515 8.68699 43.1242 8.86281C43.2969 9.03862 43.3939 9.27708 43.3939 9.52572V18.1431L45.1131 17.393V8.50642C45.1131 7.58638 44.3779 6.83802 43.4744 6.83802H34.5406ZM14.8316 10.1633H32.699V5.26278H27.9952C27.7885 5.26279 27.5879 5.19201 27.4255 5.06184C27.2631 4.93166 27.1485 4.74967 27.1 4.54513C26.7276 2.97294 25.3562 1.875 23.7653 1.875C22.1742 1.875 20.803 2.97294 20.4305 4.54513C20.3821 4.74968 20.2675 4.93169 20.1051 5.06186C19.9427 5.19204 19.7421 5.26281 19.5354 5.26278H14.8315L14.8316 10.1633ZM13.9108 12.0383C13.6666 12.0383 13.4324 11.9396 13.2597 11.7638C13.087 11.5879 12.99 11.3495 12.99 11.1008V10.4632H5.9782V54.4999H41.5523V44.1069C38.6108 42.5476 36.3236 39.9562 35.1141 36.8123H24.4205C24.1762 36.8123 23.942 36.7135 23.7693 36.5377C23.5966 36.3619 23.4996 36.1234 23.4996 35.8748C23.4996 35.6262 23.5966 35.3877 23.7693 35.2119C23.942 35.0361 24.1762 34.9373 24.4205 34.9373H34.5402C34.3003 33.904 34.1788 32.846 34.1782 31.7842V31.6011H24.4203C24.1761 31.6011 23.9419 31.5023 23.7692 31.3265C23.5965 31.1507 23.4995 30.9122 23.4995 30.6636C23.4995 30.4149 23.5965 30.1765 23.7692 30.0007C23.9419 29.8248 24.1761 29.7261 24.4203 29.7261H34.1782V24.4864H24.4203C24.1761 24.4864 23.9419 24.3876 23.7692 24.2118C23.5965 24.036 23.4995 23.7975 23.4995 23.5489C23.4995 23.3002 23.5965 23.0618 23.7692 22.886C23.9419 22.7101 24.1761 22.6114 24.4203 22.6114H34.1955C34.2229 22.4598 34.2866 22.3175 34.3809 22.197C34.4753 22.0765 34.5974 21.9816 34.7364 21.9207L41.5523 18.9467V10.4631H34.5406V11.1007C34.5406 11.3494 34.4436 11.5878 34.2709 11.7636C34.0982 11.9395 33.864 12.0382 33.6198 12.0382L13.9108 12.0383ZM45.1131 56.4567V45.3877C44.5303 45.2672 43.956 45.1077 43.3939 44.9101V55.4374C43.3939 55.6861 43.2969 55.9245 43.1242 56.1003C42.9515 56.2761 42.7173 56.3749 42.4731 56.3749H5.05738C4.81316 56.3749 4.57895 56.2761 4.40626 56.1003C4.23358 55.9245 4.13656 55.6861 4.13656 55.4374V9.52561C4.13656 9.27696 4.23358 9.03851 4.40626 8.86269C4.57895 8.68687 4.81316 8.5881 5.05738 8.5881H12.9899V6.83802H4.05634C3.15267 6.83802 2.41762 7.5865 2.41762 8.50642V56.4567C2.41762 57.3768 3.15278 58.1251 4.05634 58.1251H43.4743C44.3779 58.1251 45.1131 57.3766 45.1131 56.4567ZM56.0478 23.4006L46.0339 19.0313L36.02 23.4006V31.7842C36.02 33.0621 36.2162 34.2982 36.5819 35.4603C36.617 35.5325 36.6439 35.6094 36.6597 35.6906C37.3449 37.7236 38.5543 39.5317 40.1613 40.9256C41.7683 42.3196 43.7137 43.2481 45.794 43.614L46.0338 43.6565L46.2737 43.614C51.9371 42.6088 56.0477 37.6337 56.0477 31.7842L56.0478 23.4006ZM46.3966 21.3022L53.5823 24.4374C53.7479 24.5097 53.8891 24.6299 53.9883 24.7831C54.0875 24.9363 54.1404 25.1157 54.1404 25.2992V31.7842C54.1404 36.5493 50.8083 40.6979 46.2175 41.6488C46.0963 41.6736 45.9715 41.6736 45.8503 41.6488C41.2594 40.698 37.9274 36.5493 37.9274 31.7842V25.2992C37.9274 24.9242 38.1469 24.5852 38.4855 24.4374L45.6712 21.3022C45.7858 21.2522 45.9092 21.2265 46.0339 21.2265C46.1586 21.2265 46.282 21.2522 46.3966 21.3022ZM46.0339 23.184L39.769 25.9174V31.7841C39.769 35.5979 42.3923 38.9263 46.0339 39.7708C49.6755 38.9263 52.2988 35.5979 52.2988 31.7841V25.9174L46.0339 23.184ZM43.092 30.8646C42.9193 30.6888 42.6851 30.59 42.4409 30.5901C42.1967 30.5901 41.9625 30.6889 41.7898 30.8647C41.7043 30.9517 41.6365 31.0551 41.5902 31.1688C41.544 31.2825 41.5201 31.4044 41.5201 31.5275C41.5201 31.6507 41.544 31.7726 41.5902 31.8863C41.6365 32 41.7043 32.1034 41.7898 32.1904L43.8856 34.3241C43.9711 34.4112 44.0726 34.4804 44.1843 34.5275C44.2961 34.5746 44.4159 34.5988 44.5369 34.5986C44.7657 34.5989 44.9863 34.5121 45.1555 34.3553L50.2457 29.6522C50.4266 29.4851 50.5348 29.2517 50.5466 29.0034C50.5584 28.755 50.4729 28.5121 50.3087 28.328C50.1446 28.1438 49.9154 28.0337 49.6714 28.0216C49.4275 28.0096 49.1889 28.0967 49.008 28.2638L44.5675 32.3667L43.092 30.8646ZM23.7653 3.39739C23.1313 3.39739 22.6143 3.9238 22.6143 4.56927C22.6143 5.21474 23.1313 5.74114 23.7653 5.74114C24.3993 5.74114 24.9163 5.21474 24.9163 4.56927C24.9163 3.9238 24.3993 3.39739 23.7653 3.39739Z" fill="white"/>
</svg>
